# xmcd
#
# Track frame offsets:
#	150
#	21425
#	37874
#	52021
#	66329
#	99451
#	116740
#	139877
#	165432
#
# Disc length: 2440 seconds
#
# Revision: 1
# Processed by: cddbd v1.5.2PL0 Copyright (c) Steve Scherf et al.
# Submitted via: audiograbber 1.83.01
#
DISCID=7a098609
DTITLE=Bootleggers - Heart of Dixie
DYEAR=2012
DGENRE=Southern Rock
TTITLE0=Red Nekkid
TTITLE1=I'm Afraid
TTITLE2=Out of Habit
TTITLE3=Mama Screw Your Wig on Tight
TTITLE4=Alabama Highway
TTITLE5=Exit
TTITLE6=High on the Mountain
TTITLE7=Move it on Over
TTITLE8=51 Pieces
EXTD=
EXTT0=
EXTT1=
EXTT2=
EXTT3=
EXTT4=
EXTT5=
EXTT6=
EXTT7=
EXTT8=
PLAYORDER=
